<svg width="610" height="452" viewBox="0 0 610 452" fill="none" xmlns="http://www.w3.org/2000/svg">
<path d="M0 0.000244141H465V406.5V452H416.5H0V0.000244141Z" fill="#F3F7FA"/>
<path d="M39.1537 70.9993V56.4298H33.5121V54.8484H46.444V56.4298H40.8024V70.9993H39.1537ZM51.5047 71.3357C50.3008 71.3357 49.2727 71.0628 48.4203 70.517C47.5679 69.9711 46.9136 69.2159 46.4575 68.2514C46.0014 67.2868 45.7734 66.1802 45.7734 64.9315C45.7734 63.6603 46.0051 62.5462 46.4687 61.5891C46.9323 60.632 47.5903 59.888 48.4427 59.3572C49.3026 58.8188 50.3233 58.5496 51.5047 58.5496C52.716 58.5496 53.7479 58.8225 54.6003 59.3684C55.4602 59.9067 56.1144 60.6582 56.5631 61.6228C57.0192 62.5799 57.2472 63.6828 57.2472 64.9315C57.2472 66.2026 57.0192 67.3204 56.5631 68.285C56.1069 69.2421 55.4489 69.9898 54.5891 70.5282C53.7292 71.0666 52.701 71.3357 51.5047 71.3357ZM51.5047 69.7543C52.8506 69.7543 53.8525 69.3094 54.5105 68.4196C55.1685 67.5223 55.4975 66.3596 55.4975 64.9315C55.4975 63.4659 55.1648 62.2995 54.4993 61.4321C53.8413 60.5647 52.8431 60.1311 51.5047 60.1311C50.5999 60.1311 49.8522 60.3367 49.2615 60.7479C48.6783 61.1517 48.2409 61.7162 47.9492 62.4415C47.6651 63.1593 47.523 63.9893 47.523 64.9315C47.523 66.3895 47.8595 67.5597 48.5325 68.442C49.2054 69.3169 50.1962 69.7543 51.5047 69.7543ZM66.3163 70.9993C65.6359 71.1413 64.963 71.1974 64.2975 71.1675C63.6395 71.1376 63.0488 70.9955 62.5254 70.7413C62.0094 70.4871 61.6169 70.0908 61.3477 69.5524C61.1309 69.1038 61.0112 68.6514 60.9888 68.1953C60.9738 67.7317 60.9664 67.2046 60.9664 66.6138V55.5213H62.6039V66.5466C62.6039 67.055 62.6076 67.4812 62.6151 67.8252C62.63 68.1616 62.7086 68.4607 62.8506 68.7224C63.1198 69.2234 63.546 69.5225 64.1292 69.6197C64.7199 69.7169 65.449 69.6945 66.3163 69.5524V70.9993ZM58.3755 60.2993V58.8861H66.3163V60.2993H58.3755ZM72.1686 71.3357C71.2564 71.3357 70.4899 71.1712 69.8693 70.8422C69.2562 70.5132 68.7963 70.0758 68.4898 69.53C68.1832 68.9841 68.0299 68.3897 68.0299 67.7467C68.0299 67.0887 68.1608 66.5279 68.4225 66.0643C68.6917 65.5932 69.0543 65.2081 69.5104 64.909C69.974 64.6099 70.5086 64.3819 71.1143 64.2249C71.7274 64.0753 72.4041 63.9445 73.1444 63.8323C73.8921 63.7127 74.6211 63.6117 75.3315 63.5295C76.0493 63.4397 76.6774 63.3538 77.2157 63.2715L76.6325 63.6304C76.655 62.4341 76.4232 61.548 75.9371 60.9722C75.4511 60.3965 74.6062 60.1086 73.4023 60.1086C72.5724 60.1086 71.8695 60.2956 71.2937 60.6694C70.7255 61.0433 70.3254 61.634 70.0936 62.4415L68.4898 61.9705C68.7664 60.8863 69.3235 60.0451 70.1609 59.4469C70.9984 58.8487 72.0863 58.5496 73.4248 58.5496C74.5314 58.5496 75.4698 58.759 76.24 59.1777C77.0176 59.5889 77.5672 60.1871 77.8887 60.9722C78.0382 61.3237 78.1355 61.7162 78.1803 62.1499C78.2252 62.5836 78.2476 63.0248 78.2476 63.4734V70.9993H76.7783V67.9598L77.2045 68.1392C76.7933 69.1786 76.154 69.9711 75.2866 70.517C74.4192 71.0628 73.3799 71.3357 72.1686 71.3357ZM72.3593 69.9113C73.1294 69.9113 73.8024 69.773 74.3781 69.4963C74.9539 69.2197 75.4175 68.8421 75.7689 68.3635C76.1203 67.8775 76.3484 67.3317 76.4531 66.726C76.5428 66.3372 76.5914 65.911 76.5989 65.4474C76.6063 64.9763 76.6101 64.6249 76.6101 64.3931L77.2382 64.7184C76.6774 64.7931 76.068 64.8679 75.41 64.9427C74.7595 65.0174 74.1164 65.1034 73.4808 65.2006C72.8528 65.2978 72.2845 65.4137 71.776 65.5483C71.4321 65.6455 71.0993 65.7839 70.7778 65.9633C70.4563 66.1353 70.1908 66.3671 69.9815 66.6587C69.7796 66.9503 69.6787 67.313 69.6787 67.7467C69.6787 68.0981 69.7646 68.4383 69.9366 68.7673C70.1161 69.0963 70.4002 69.3692 70.789 69.5861C71.1853 69.8029 71.7087 69.9113 72.3593 69.9113ZM81.3917 70.9993V54.5119H83.0405V70.9993H81.3917ZM90.8937 70.9993V54.8484H97.1298C98.0345 54.8484 98.8234 55.0353 99.4963 55.4092C100.169 55.783 100.693 56.2877 101.067 56.9233C101.44 57.5514 101.627 58.2468 101.627 59.0095C101.627 59.8768 101.396 60.6507 100.932 61.3312C100.468 62.0041 99.8478 62.4714 99.0701 62.7331L99.0477 62.1836C100.095 62.4827 100.917 63.0061 101.515 63.7538C102.113 64.5015 102.412 65.4063 102.412 66.468C102.412 67.4027 102.214 68.2102 101.818 68.8907C101.422 69.5636 100.865 70.0833 100.147 70.4497C99.429 70.8161 98.5953 70.9993 97.6457 70.9993H90.8937ZM92.5537 69.4178H97.2419C97.8999 69.4178 98.4906 69.3019 99.014 69.0701C99.5375 68.8309 99.9487 68.4944 100.248 68.0607C100.554 67.627 100.708 67.1036 100.708 66.4905C100.708 65.8923 100.569 65.3539 100.293 64.8754C100.016 64.3968 99.6384 64.0155 99.1599 63.7314C98.6888 63.4397 98.1504 63.2939 97.5448 63.2939H92.5537V69.4178ZM92.5537 61.7349H97.1186C97.6345 61.7349 98.1056 61.619 98.5318 61.3872C98.958 61.148 99.2944 60.8227 99.5412 60.4114C99.7954 60.0002 99.9225 59.5254 99.9225 58.987C99.9225 58.2243 99.6571 57.6037 99.1262 57.1252C98.6028 56.6466 97.9336 56.4074 97.1186 56.4074H92.5537V61.7349ZM108.116 71.3357C107.204 71.3357 106.438 71.1712 105.817 70.8422C105.204 70.5132 104.744 70.0758 104.438 69.53C104.131 68.9841 103.978 68.3897 103.978 67.7467C103.978 67.0887 104.109 66.5279 104.37 66.0643C104.64 65.5932 105.002 65.2081 105.458 64.909C105.922 64.6099 106.457 64.3819 107.062 64.2249C107.675 64.0753 108.352 63.9445 109.092 63.8323C109.84 63.7127 110.569 63.6117 111.279 63.5295C111.997 63.4397 112.625 63.3538 113.164 63.2715L112.58 63.6304C112.603 62.4341 112.371 61.548 111.885 60.9722C111.399 60.3965 110.554 60.1086 109.35 60.1086C108.52 60.1086 107.817 60.2956 107.242 60.6694C106.673 61.0433 106.273 61.634 106.042 62.4415L104.438 61.9705C104.714 60.8863 105.271 60.0451 106.109 59.4469C106.946 58.8487 108.034 58.5496 109.373 58.5496C110.479 58.5496 111.418 58.759 112.188 59.1777C112.965 59.5889 113.515 60.1871 113.837 60.9722C113.986 61.3237 114.083 61.7162 114.128 62.1499C114.173 62.5836 114.195 63.0248 114.195 63.4734V70.9993H112.726V67.9598L113.152 68.1392C112.741 69.1786 112.102 69.9711 111.234 70.517C110.367 71.0628 109.328 71.3357 108.116 71.3357ZM108.307 69.9113C109.077 69.9113 109.75 69.773 110.326 69.4963C110.902 69.2197 111.365 68.8421 111.717 68.3635C112.068 67.8775 112.296 67.3317 112.401 66.726C112.491 66.3372 112.539 65.911 112.547 65.4474C112.554 64.9763 112.558 64.6249 112.558 64.3931L113.186 64.7184C112.625 64.7931 112.016 64.8679 111.358 64.9427C110.707 65.0174 110.064 65.1034 109.429 65.2006C108.801 65.2978 108.232 65.4137 107.724 65.5483C107.38 65.6455 107.047 65.7839 106.726 65.9633C106.404 66.1353 106.139 66.3671 105.929 66.6587C105.727 66.9503 105.627 67.313 105.627 67.7467C105.627 68.0981 105.713 68.4383 105.884 68.7673C106.064 69.0963 106.348 69.3692 106.737 69.5861C107.133 69.8029 107.657 69.9113 108.307 69.9113ZM117.34 70.9993V54.5119H118.988V70.9993H117.34ZM125.817 71.3357C124.904 71.3357 124.138 71.1712 123.517 70.8422C122.904 70.5132 122.444 70.0758 122.138 69.53C121.831 68.9841 121.678 68.3897 121.678 67.7467C121.678 67.0887 121.809 66.5279 122.07 66.0643C122.34 65.5932 122.702 65.2081 123.158 64.909C123.622 64.6099 124.157 64.3819 124.762 64.2249C125.375 64.0753 126.052 63.9445 126.792 63.8323C127.54 63.7127 128.269 63.6117 128.979 63.5295C129.697 63.4397 130.325 63.3538 130.864 63.2715L130.28 63.6304C130.303 62.4341 130.071 61.548 129.585 60.9722C129.099 60.3965 128.254 60.1086 127.05 60.1086C126.22 60.1086 125.517 60.2956 124.942 60.6694C124.373 61.0433 123.973 61.634 123.742 62.4415L122.138 61.9705C122.414 60.8863 122.971 60.0451 123.809 59.4469C124.646 58.8487 125.734 58.5496 127.073 58.5496C128.179 58.5496 129.118 58.759 129.888 59.1777C130.666 59.5889 131.215 60.1871 131.537 60.9722C131.686 61.3237 131.783 61.7162 131.828 62.1499C131.873 62.5836 131.896 63.0248 131.896 63.4734V70.9993H130.426V67.9598L130.853 68.1392C130.441 69.1786 129.802 69.9711 128.935 70.517C128.067 71.0628 127.028 71.3357 125.817 71.3357ZM126.007 69.9113C126.777 69.9113 127.45 69.773 128.026 69.4963C128.602 69.2197 129.065 68.8421 129.417 68.3635C129.768 67.8775 129.996 67.3317 130.101 66.726C130.191 66.3372 130.239 65.911 130.247 65.4474C130.254 64.9763 130.258 64.6249 130.258 64.3931L130.886 64.7184C130.325 64.7931 129.716 64.8679 129.058 64.9427C128.407 65.0174 127.764 65.1034 127.129 65.2006C126.501 65.2978 125.932 65.4137 125.424 65.5483C125.08 65.6455 124.747 65.7839 124.426 65.9633C124.104 66.1353 123.839 66.3671 123.629 66.6587C123.428 66.9503 123.327 67.313 123.327 67.7467C123.327 68.0981 123.413 68.4383 123.585 68.7673C123.764 69.0963 124.048 69.3692 124.437 69.5861C124.833 69.8029 125.357 69.9113 126.007 69.9113ZM143.564 70.9993V64.8193C143.564 64.1463 143.5 63.5295 143.373 62.9687C143.246 62.4004 143.04 61.9069 142.756 61.4882C142.48 61.062 142.117 60.733 141.668 60.5012C141.227 60.2694 140.689 60.1535 140.053 60.1535C139.47 60.1535 138.954 60.2544 138.505 60.4563C138.064 60.6582 137.69 60.9498 137.384 61.3312C137.085 61.705 136.857 62.1611 136.7 62.6995C136.543 63.2379 136.464 63.851 136.464 64.5389L135.298 64.2809C135.298 63.0397 135.515 61.9966 135.948 61.1517C136.382 60.3068 136.98 59.6675 137.743 59.2338C138.505 58.8001 139.38 58.5833 140.367 58.5833C141.093 58.5833 141.724 58.6954 142.263 58.9197C142.809 59.1441 143.268 59.4469 143.642 59.8282C144.024 60.2096 144.33 60.647 144.562 61.1405C144.794 61.6265 144.962 62.1462 145.067 62.6995C145.171 63.2453 145.224 63.7912 145.224 64.337V70.9993H143.564ZM134.804 70.9993V58.8861H136.296V61.8695H136.464V70.9993H134.804ZM153.093 71.3357C151.875 71.3357 150.843 71.0628 149.998 70.517C149.153 69.9711 148.51 69.2197 148.069 68.2626C147.635 67.298 147.411 66.1914 147.396 64.9427C147.411 63.6715 147.642 62.5574 148.091 61.6003C148.54 60.6358 149.186 59.888 150.031 59.3572C150.876 58.8188 151.901 58.5496 153.105 58.5496C154.331 58.5496 155.396 58.8487 156.301 59.4469C157.213 60.0451 157.838 60.8638 158.174 61.9032L156.559 62.4191C156.275 61.6938 155.823 61.133 155.202 60.7367C154.589 60.3329 153.886 60.1311 153.093 60.1311C152.204 60.1311 151.467 60.3367 150.884 60.7479C150.301 61.1517 149.867 61.7162 149.583 62.4415C149.299 63.1668 149.153 64.0005 149.145 64.9427C149.16 66.3933 149.497 67.5597 150.155 68.442C150.813 69.3169 151.792 69.7543 153.093 69.7543C153.916 69.7543 154.615 69.5674 155.191 69.1935C155.774 68.8122 156.215 68.2588 156.514 67.5336L158.174 68.0271C157.725 69.1038 157.067 69.9263 156.2 70.4946C155.333 71.0553 154.297 71.3357 153.093 71.3357ZM165.286 71.3357C164.105 71.3357 163.081 71.074 162.213 70.5506C161.353 70.0272 160.684 69.2907 160.206 68.3411C159.727 67.3915 159.488 66.2774 159.488 64.9988C159.488 63.6753 159.723 62.5313 160.194 61.5667C160.665 60.6021 161.327 59.8581 162.18 59.3347C163.039 58.8113 164.053 58.5496 165.219 58.5496C166.415 58.5496 167.436 58.8263 168.281 59.3796C169.126 59.9254 169.765 60.7105 170.199 61.7349C170.633 62.7593 170.831 63.9818 170.793 65.4025H169.111V64.8193C169.081 63.2491 168.741 62.0639 168.09 61.2639C167.447 60.4638 166.505 60.0638 165.264 60.0638C163.963 60.0638 162.965 60.4862 162.269 61.3312C161.581 62.1761 161.237 63.3799 161.237 64.9427C161.237 66.468 161.581 67.6532 162.269 68.4981C162.965 69.3356 163.948 69.7543 165.219 69.7543C166.086 69.7543 166.842 69.5562 167.485 69.1599C168.135 68.7561 168.647 68.1766 169.021 67.4214L170.558 68.0158C170.079 69.0701 169.373 69.8889 168.438 70.4721C167.511 71.0479 166.46 71.3357 165.286 71.3357ZM160.654 65.4025V64.023H169.907V65.4025H160.654Z" fill="black"/>
<path d="M41.2291 116.607V113.569H44.3182V116.607H41.2291ZM41.2291 96.0976V93.0597H44.3182V96.0976H41.2291ZM42.8441 114.44C41.5452 114.44 40.3831 114.201 39.3576 113.723C38.3321 113.244 37.4904 112.569 36.8324 111.697C36.183 110.826 35.7685 109.792 35.5891 108.595L38.6398 108.108C38.8791 109.159 39.3918 109.997 40.178 110.621C40.9727 111.236 41.9212 111.544 43.0236 111.544C44.0832 111.544 44.9549 111.296 45.6385 110.8C46.3221 110.296 46.664 109.659 46.664 108.89C46.664 108.352 46.5016 107.916 46.1769 107.583C45.8521 107.241 45.3309 106.959 44.6131 106.737L40.1651 105.352C37.5759 104.549 36.2812 102.977 36.2812 100.635C36.2812 99.5415 36.5419 98.5886 37.0631 97.7768C37.593 96.9565 38.3364 96.3284 39.2935 95.8925C40.2506 95.4482 41.3786 95.2303 42.6775 95.2388C43.8824 95.2474 44.9549 95.4653 45.8949 95.8925C46.8434 96.3198 47.6296 96.9351 48.2534 97.7384C48.8858 98.5416 49.3344 99.5073 49.5993 100.635L46.4332 101.212C46.3136 100.605 46.0786 100.071 45.7282 99.6098C45.3779 99.1484 44.9378 98.7895 44.408 98.5331C43.8781 98.2767 43.2885 98.14 42.6391 98.1229C42.0152 98.1144 41.4555 98.2126 40.9599 98.4177C40.4642 98.6143 40.0711 98.8963 39.7806 99.2637C39.4901 99.6226 39.3448 100.029 39.3448 100.481C39.3448 100.986 39.5456 101.417 39.9472 101.776C40.3574 102.135 41.0026 102.443 41.8828 102.699L45.2027 103.66C46.8007 104.122 47.9501 104.75 48.6508 105.545C49.3601 106.331 49.7147 107.378 49.7147 108.685C49.7147 109.83 49.4284 110.834 48.8559 111.697C48.2833 112.56 47.4801 113.236 46.4461 113.723C45.4121 114.201 44.2114 114.44 42.8441 114.44ZM60.1597 114.056V111.005H51.9817V108.121L57.8909 95.5977H61.4159L55.5067 108.121H60.1597V103.314H63.2873V108.121H65.0178V111.005H63.2873V114.056H60.1597ZM67.3345 117.325L67.5139 115.991C67.907 116.026 68.2189 115.957 68.4497 115.786C68.6804 115.624 68.8342 115.389 68.9111 115.081C68.9966 114.782 69.0179 114.44 68.9752 114.056H67.3345V110.762H70.5006V114.184C70.5006 115.304 70.2357 116.15 69.7058 116.722C69.176 117.295 68.3856 117.495 67.3345 117.325ZM74.8642 114.03V111.338L82.7602 104.301C83.3754 103.754 83.8027 103.237 84.042 102.75C84.2813 102.263 84.4009 101.793 84.4009 101.34C84.4009 100.725 84.2684 100.178 84.0035 99.6995C83.7386 99.2125 83.3712 98.8279 82.9012 98.5459C82.4397 98.2639 81.9056 98.1229 81.2989 98.1229C80.658 98.1229 80.0897 98.2725 79.5941 98.5715C79.107 98.8621 78.7267 99.2509 78.4533 99.738C78.1798 100.225 78.0516 100.751 78.0687 101.315H74.8898C74.8898 100.084 75.1633 99.0116 75.7102 98.0973C76.2656 97.1829 77.0262 96.4736 77.9918 95.9695C78.966 95.4653 80.0897 95.2132 81.363 95.2132C82.5423 95.2132 83.6019 95.4781 84.5419 96.0079C85.4819 96.5292 86.2211 97.2555 86.7594 98.187C87.2978 99.1099 87.567 100.174 87.567 101.379C87.567 102.259 87.4473 102.998 87.2081 103.596C86.9688 104.194 86.6099 104.746 86.1313 105.25C85.6613 105.754 85.076 106.314 84.3753 106.929L78.7737 111.89L78.4917 111.121H87.567V114.03H74.8642ZM97.2884 114.44C95.9809 114.44 94.8273 114.163 93.8275 113.607C92.8276 113.043 92.0457 112.261 91.4817 111.262C90.9263 110.262 90.6485 109.108 90.6485 107.801V101.853C90.6485 100.546 90.9263 99.3919 91.4817 98.3921C92.0457 97.3923 92.8276 96.6146 93.8275 96.0592C94.8273 95.4952 95.9809 95.2132 97.2884 95.2132C98.5958 95.2132 99.7452 95.4952 100.736 96.0592C101.736 96.6146 102.518 97.3923 103.082 98.3921C103.646 99.3919 103.928 100.546 103.928 101.853V107.801C103.928 109.108 103.646 110.262 103.082 111.262C102.518 112.261 101.736 113.043 100.736 113.607C99.7452 114.163 98.5958 114.44 97.2884 114.44ZM97.2884 111.505C97.9378 111.505 98.5275 111.351 99.0573 111.044C99.5871 110.727 100.006 110.309 100.313 109.787C100.621 109.258 100.775 108.668 100.775 108.019V101.622C100.775 100.964 100.621 100.375 100.313 99.8534C100.006 99.3235 99.5871 98.9048 99.0573 98.5972C98.5275 98.281 97.9378 98.1229 97.2884 98.1229C96.6389 98.1229 96.0493 98.281 95.5195 98.5972C94.9896 98.9048 94.5709 99.3235 94.2633 99.8534C93.9556 100.375 93.8018 100.964 93.8018 101.622V108.019C93.8018 108.668 93.9556 109.258 94.2633 109.787C94.5709 110.309 94.9896 110.727 95.5195 111.044C96.0493 111.351 96.6389 111.505 97.2884 111.505ZM114.162 114.44C112.855 114.44 111.701 114.163 110.701 113.607C109.702 113.043 108.92 112.261 108.356 111.262C107.8 110.262 107.522 109.108 107.522 107.801V101.853C107.522 100.546 107.8 99.3919 108.356 98.3921C108.92 97.3923 109.702 96.6146 110.701 96.0592C111.701 95.4952 112.855 95.2132 114.162 95.2132C115.47 95.2132 116.619 95.4952 117.61 96.0592C118.61 96.6146 119.392 97.3923 119.956 98.3921C120.52 99.3919 120.802 100.546 120.802 101.853V107.801C120.802 109.108 120.52 110.262 119.956 111.262C119.392 112.261 118.61 113.043 117.61 113.607C116.619 114.163 115.47 114.44 114.162 114.44ZM114.162 111.505C114.812 111.505 115.401 111.351 115.931 111.044C116.461 110.727 116.88 110.309 117.187 109.787C117.495 109.258 117.649 108.668 117.649 108.019V101.622C117.649 100.964 117.495 100.375 117.187 99.8534C116.88 99.3235 116.461 98.9048 115.931 98.5972C115.401 98.281 114.812 98.1229 114.162 98.1229C113.513 98.1229 112.923 98.281 112.393 98.5972C111.864 98.9048 111.445 99.3235 111.137 99.8534C110.83 100.375 110.676 100.964 110.676 101.622V108.019C110.676 108.668 110.83 109.258 111.137 109.787C111.445 110.309 111.864 110.727 112.393 111.044C112.923 111.351 113.513 111.505 114.162 111.505Z" fill="black"/>
<path d="M137.844 99.3056V101.43H134.324V104.95H132.2V101.43H128.679V99.3056H132.2V95.7854H134.324V99.3056H137.844ZM143.089 93.0775H145.172V107.658H142.777V95.6396L139.84 96.4727L139.257 94.4314L143.089 93.0775ZM158.463 102.805V105.034H156.797V107.658H154.38V105.034H147.215V102.805L152.235 93.0775H154.839L149.819 102.805H154.38V99.0139H156.797V102.805H158.463ZM164.655 98.514C164.016 99.1528 163.211 99.4722 162.239 99.4722C161.267 99.4722 160.455 99.1528 159.802 98.514C159.149 97.8614 158.823 97.0698 158.823 96.1395C158.823 95.2091 159.149 94.4245 159.802 93.7857C160.455 93.1331 161.267 92.8067 162.239 92.8067C163.211 92.8067 164.016 93.1261 164.655 93.7649C165.308 94.4037 165.634 95.1952 165.634 96.1395C165.634 97.0698 165.308 97.8614 164.655 98.514ZM162.218 97.6392C162.662 97.6392 163.024 97.4934 163.301 97.2018C163.579 96.9102 163.718 96.5561 163.718 96.1395C163.718 95.709 163.579 95.3479 163.301 95.0563C163.024 94.7647 162.662 94.6189 162.218 94.6189C161.788 94.6189 161.434 94.7647 161.156 95.0563C160.878 95.3479 160.739 95.709 160.739 96.1395C160.739 96.5561 160.878 96.9102 161.156 97.2018C161.434 97.4934 161.788 97.6392 162.218 97.6392ZM160.052 105.513L169.654 94.8272L170.779 95.4729L161.177 106.179L160.052 105.513ZM168.904 107.908C167.932 107.908 167.12 107.589 166.467 106.95C165.815 106.297 165.488 105.506 165.488 104.575C165.488 103.645 165.815 102.86 166.467 102.222C167.12 101.569 167.932 101.243 168.904 101.243C169.863 101.243 170.668 101.569 171.321 102.222C171.973 102.86 172.3 103.645 172.3 104.575C172.3 105.506 171.973 106.297 171.321 106.95C170.668 107.589 169.863 107.908 168.904 107.908ZM168.884 106.075C169.328 106.075 169.689 105.929 169.967 105.638C170.244 105.346 170.383 104.992 170.383 104.575C170.383 104.145 170.244 103.784 169.967 103.492C169.689 103.201 169.328 103.055 168.884 103.055C168.453 103.055 168.099 103.201 167.821 103.492C167.544 103.784 167.405 104.145 167.405 104.575C167.405 104.992 167.544 105.346 167.821 105.638C168.099 105.929 168.453 106.075 168.884 106.075Z" fill="#00E1F0"/>
<path d="M35.2823 145.009H36.8523V155.999H35.0468V146.94L32.8331 147.568L32.3935 146.03L35.2823 145.009ZM46.1478 154.649C45.3942 155.685 44.337 156.203 42.9764 156.203C41.6157 156.203 40.5533 155.685 39.7893 154.649C39.0357 153.613 38.6589 152.231 38.6589 150.504C38.6589 148.777 39.0357 147.396 39.7893 146.359C40.5533 145.323 41.6157 144.805 42.9764 144.805C44.337 144.805 45.3942 145.323 46.1478 146.359C46.9118 147.396 47.2939 148.777 47.2939 150.504C47.2939 152.231 46.9118 153.613 46.1478 154.649ZM42.9764 154.445C43.7928 154.445 44.4155 154.105 44.8447 153.424C45.2738 152.744 45.4884 151.771 45.4884 150.504C45.4884 149.238 45.2738 148.264 44.8447 147.584C44.4155 146.904 43.7928 146.564 42.9764 146.564C42.1704 146.564 41.5477 146.904 41.1081 147.584C40.6789 148.264 40.4644 149.238 40.4644 150.504C40.4644 151.771 40.6789 152.744 41.1081 153.424C41.5477 154.105 42.1704 154.445 42.9764 154.445ZM55.8485 155.999H53.8232L50.6047 152.373V155.999H48.9091V145.009H50.6047V151.619L53.6505 148.149H55.7229L52.2689 151.996L55.8485 155.999Z" fill="#718EBF"/>
<path d="M41.6519 231.341V233.021H40.3959V234.999H38.5747V233.021H33.1739V231.341L36.9576 224.009H38.9201L35.1364 231.341H38.5747V228.484H40.3959V231.341H41.6519ZM49.8485 234.999H47.8232L44.6047 231.373V234.999H42.9091V224.009H44.6047V230.619L47.6505 227.149H49.7229L46.2689 230.996L49.8485 234.999Z" fill="#718EBF"/>
<path d="M33.0968 313.999V312.586L36.9276 308.677C37.8591 307.745 38.3249 306.94 38.3249 306.259C38.3249 305.725 38.1626 305.312 37.8382 305.019C37.5242 304.715 37.1212 304.564 36.6293 304.564C35.7082 304.564 35.0279 305.019 34.5883 305.929L33.0654 305.035C33.4108 304.302 33.8975 303.747 34.5255 303.37C35.1535 302.994 35.8495 302.805 36.6136 302.805C37.5765 302.805 38.4034 303.109 39.0942 303.716C39.785 304.323 40.1304 305.15 40.1304 306.196C40.1304 307.316 39.5076 308.51 38.2621 309.776L35.7815 312.257H40.3345V313.999H33.0968ZM48.8485 313.999H46.8232L43.6047 310.373V313.999H41.9091V303.009H43.6047V309.619L46.6505 306.149H48.7229L45.2689 309.996L48.8485 313.999Z" fill="#718EBF"/>
<path d="M40.2277 391.649C39.4741 392.685 38.417 393.203 37.0563 393.203C35.6957 393.203 34.6333 392.685 33.8692 391.649C33.1156 390.613 32.7388 389.231 32.7388 387.504C32.7388 385.777 33.1156 384.396 33.8692 383.359C34.6333 382.323 35.6957 381.805 37.0563 381.805C38.417 381.805 39.4741 382.323 40.2277 383.359C40.9918 384.396 41.3738 385.777 41.3738 387.504C41.3738 389.231 40.9918 390.613 40.2277 391.649ZM37.0563 391.445C37.8727 391.445 38.4955 391.105 38.9246 390.424C39.3538 389.744 39.5683 388.771 39.5683 387.504C39.5683 386.238 39.3538 385.264 38.9246 384.584C38.4955 383.904 37.8727 383.564 37.0563 383.564C36.2504 383.564 35.6276 383.904 35.188 384.584C34.7589 385.264 34.5443 386.238 34.5443 387.504C34.5443 388.771 34.7589 389.744 35.188 390.424C35.6276 391.105 36.2504 391.445 37.0563 391.445Z" fill="#718EBF"/>
<path d="M85.1077 415.579C84.0506 415.579 83.1504 415.338 82.4073 414.856C81.6746 414.375 81.1618 413.716 80.8687 412.878L82.423 411.968C82.8626 413.203 83.7732 413.82 85.1548 413.82C85.8351 413.82 86.3428 413.689 86.6777 413.428C87.0231 413.156 87.1958 412.805 87.1958 412.376C87.1958 411.926 87.0126 411.586 86.6463 411.355C86.28 411.115 85.631 410.853 84.6995 410.57C84.1762 410.413 83.7523 410.267 83.4278 410.131C83.1033 409.995 82.7579 409.806 82.3916 409.566C82.0357 409.314 81.7688 409.006 81.5909 408.639C81.413 408.273 81.324 407.844 81.324 407.352C81.324 406.378 81.6694 405.609 82.3602 405.044C83.051 404.468 83.8831 404.18 84.8565 404.18C85.7357 404.18 86.505 404.395 87.1644 404.824C87.8238 405.253 88.3314 405.845 88.6873 406.598L87.1644 407.477C86.7039 406.452 85.9346 405.939 84.8565 405.939C84.3332 405.939 83.9145 406.064 83.6005 406.316C83.2865 406.556 83.1295 406.886 83.1295 407.305C83.1295 407.713 83.2865 408.037 83.6005 408.278C83.925 408.508 84.5059 408.754 85.3432 409.016C85.7619 409.152 86.0654 409.257 86.2538 409.33C86.4527 409.393 86.7248 409.497 87.0702 409.644C87.4261 409.791 87.693 409.937 87.8709 410.084C88.0488 410.23 88.2372 410.413 88.4361 410.633C88.6454 410.853 88.792 411.104 88.8757 411.387C88.9594 411.669 89.0013 411.989 89.0013 412.344C89.0013 413.339 88.6402 414.129 87.918 414.715C87.2063 415.291 86.2695 415.579 85.1077 415.579Z" fill="#718EBF"/>
<path d="M64 350.887C64 347.635 66.6359 344.999 69.8875 344.999H97.1125C100.364 344.999 103 347.635 103 350.887V394.999H64V350.887Z" fill="white"/>
<path d="M136.813 404.384V415.374H135.007V407.54L131.663 413.066H131.443L128.099 407.524V415.374H126.294V404.384H128.24L131.553 409.879L134.882 404.384H136.813Z" fill="#718EBF"/>
<path d="M111 324.887C111 321.635 113.636 318.999 116.887 318.999H145.112C148.364 318.999 151 321.635 151 324.887V394.999H111V324.887Z" fill="white"/>
<path d="M182.616 404.385V406.112H179.523V415.375H177.717V406.112H174.609V404.385H182.616Z" fill="#718EBF"/>
<path d="M158 223.887C158 220.635 160.636 217.999 163.887 217.999H192.112C195.364 217.999 198 220.635 198 223.887V394.999H158V223.887Z" fill="white"/>
<path d="M220.867 415.375L217.759 404.385H219.658L221.966 412.972L224.463 404.385H226.127L228.607 412.972L230.915 404.385H232.815L229.706 415.375H227.618L225.295 407.352L222.955 415.375H220.867Z" fill="#718EBF"/>
<path d="M206 269.887C206 266.635 208.636 263.999 211.888 263.999H239.113C242.364 263.999 245 266.635 245 269.887V394.999H206V269.887Z" fill="#3734A9"/>
<path d="M276.816 404.385V406.112H273.723V415.375H271.917V406.112H268.809V404.385H276.816Z" fill="#718EBF"/>
<path d="M253 151.887C253 148.635 255.636 145.999 258.888 145.999H286.113C289.364 145.999 292 148.635 292 151.887V394.999H253V151.887Z" fill="#3734A9"/>
<path d="M325.347 406.112H320.716V409.189H325.19V410.916H320.716V415.375H318.91V404.385H325.347V406.112Z" fill="#718EBF"/>
<path d="M300 350.887C300 347.635 302.636 344.999 305.887 344.999H333.112C336.364 344.999 339 347.635 339 350.887V394.999H300V350.887Z" fill="white"/>
<path d="M367.708 415.579C366.651 415.579 365.751 415.338 365.008 414.856C364.275 414.375 363.762 413.716 363.469 412.878L365.023 411.968C365.463 413.203 366.374 413.82 367.755 413.82C368.435 413.82 368.943 413.689 369.278 413.428C369.623 413.156 369.796 412.805 369.796 412.376C369.796 411.926 369.613 411.586 369.247 411.355C368.88 411.115 368.231 410.853 367.3 410.57C366.776 410.413 366.353 410.267 366.028 410.131C365.704 409.995 365.358 409.806 364.992 409.566C364.636 409.314 364.369 409.006 364.191 408.639C364.013 408.273 363.924 407.844 363.924 407.352C363.924 406.378 364.27 405.609 364.961 405.044C365.651 404.468 366.483 404.18 367.457 404.18C368.336 404.18 369.105 404.395 369.765 404.824C370.424 405.253 370.932 405.845 371.288 406.598L369.765 407.477C369.304 406.452 368.535 405.939 367.457 405.939C366.933 405.939 366.515 406.064 366.201 406.316C365.887 406.556 365.73 406.886 365.73 407.305C365.73 407.713 365.887 408.037 366.201 408.278C366.525 408.508 367.106 408.754 367.944 409.016C368.362 409.152 368.666 409.257 368.854 409.33C369.053 409.393 369.325 409.497 369.671 409.644C370.026 409.791 370.293 409.937 370.471 410.084C370.649 410.23 370.838 410.413 371.036 410.633C371.246 410.853 371.392 411.104 371.476 411.387C371.56 411.669 371.602 411.989 371.602 412.344C371.602 413.339 371.241 414.129 370.518 414.715C369.807 415.291 368.87 415.579 367.708 415.579Z" fill="#718EBF"/>
<path d="M347 269.887C347 266.635 349.636 263.999 352.887 263.999H380.112C383.364 263.999 386 266.635 386 269.887V394.999H347V269.887Z" fill="#3734A9"/>
<path d="M416.771 415.579C415.714 415.579 414.814 415.338 414.071 414.856C413.338 414.375 412.825 413.716 412.532 412.878L414.086 411.968C414.526 413.203 415.437 413.82 416.818 413.82C417.498 413.82 418.006 413.689 418.341 413.428C418.686 413.156 418.859 412.805 418.859 412.376C418.859 411.926 418.676 411.586 418.31 411.355C417.943 411.115 417.294 410.853 416.363 410.57C415.839 410.413 415.416 410.267 415.091 410.131C414.767 409.995 414.421 409.806 414.055 409.566C413.699 409.314 413.432 409.006 413.254 408.639C413.076 408.273 412.987 407.844 412.987 407.352C412.987 406.378 413.333 405.609 414.024 405.044C414.714 404.468 415.546 404.18 416.52 404.18C417.399 404.18 418.168 404.395 418.828 404.824C419.487 405.253 419.995 405.845 420.351 406.598L418.828 407.477C418.367 406.452 417.598 405.939 416.52 405.939C415.996 405.939 415.578 406.064 415.264 406.316C414.95 406.556 414.793 406.886 414.793 407.305C414.793 407.713 414.95 408.037 415.264 408.278C415.588 408.508 416.169 408.754 417.007 409.016C417.425 409.152 417.729 409.257 417.917 409.33C418.116 409.393 418.388 409.497 418.734 409.644C419.089 409.791 419.356 409.937 419.534 410.084C419.712 410.23 419.901 410.413 420.099 410.633C420.309 410.853 420.455 411.104 420.539 411.387C420.623 411.669 420.665 411.989 420.665 412.344C420.665 413.339 420.304 414.129 419.581 414.715C418.87 415.291 417.933 415.579 416.771 415.579Z" fill="#718EBF"/>
<path d="M394 206.887C394 203.635 396.636 200.999 399.887 200.999H427.112C430.364 200.999 433 203.635 433 206.887V394.999H394V206.887Z" fill="#3734A9"/>
<g filter="url(#filter0_dddddd_35_795)">
<rect x="355" y="29.9993" width="175" height="190" rx="10" fill="white"/>
</g>
<circle cx="372" cy="200.999" r="5" fill="#3734A9"/>
<path d="M379.56 203.999V198.239H381.94C381.996 198.239 382.068 198.242 382.156 198.247C382.244 198.25 382.325 198.258 382.4 198.271C382.733 198.322 383.008 198.433 383.224 198.603C383.443 198.774 383.604 198.99 383.708 199.251C383.815 199.51 383.868 199.798 383.868 200.115C383.868 200.43 383.815 200.718 383.708 200.979C383.601 201.238 383.439 201.453 383.22 201.623C383.004 201.794 382.731 201.905 382.4 201.955C382.325 201.966 382.243 201.974 382.152 201.979C382.064 201.985 381.993 201.987 381.94 201.987H380.524V203.999H379.56ZM380.524 201.087H381.9C381.953 201.087 382.013 201.085 382.08 201.079C382.147 201.074 382.208 201.063 382.264 201.047C382.424 201.007 382.549 200.937 382.64 200.835C382.733 200.734 382.799 200.619 382.836 200.491C382.876 200.363 382.896 200.238 382.896 200.115C382.896 199.993 382.876 199.867 382.836 199.739C382.799 199.609 382.733 199.493 382.64 199.391C382.549 199.29 382.424 199.219 382.264 199.179C382.208 199.163 382.147 199.154 382.08 199.151C382.013 199.146 381.953 199.143 381.9 199.143H380.524V201.087ZM385.608 204.119C385.296 204.119 385.032 204.061 384.816 203.943C384.6 203.823 384.436 203.665 384.324 203.467C384.215 203.27 384.16 203.053 384.16 202.815C384.16 202.607 384.195 202.421 384.264 202.255C384.333 202.087 384.44 201.943 384.584 201.823C384.728 201.701 384.915 201.601 385.144 201.523C385.317 201.467 385.52 201.417 385.752 201.371C385.987 201.326 386.24 201.285 386.512 201.247C386.787 201.207 387.073 201.165 387.372 201.119L387.028 201.315C387.031 201.017 386.964 200.797 386.828 200.655C386.692 200.514 386.463 200.443 386.14 200.443C385.945 200.443 385.757 200.489 385.576 200.579C385.395 200.67 385.268 200.826 385.196 201.047L384.316 200.771C384.423 200.406 384.625 200.113 384.924 199.891C385.225 199.67 385.631 199.559 386.14 199.559C386.524 199.559 386.861 199.622 387.152 199.747C387.445 199.873 387.663 200.078 387.804 200.363C387.881 200.515 387.928 200.671 387.944 200.831C387.96 200.989 387.968 201.161 387.968 201.347V203.999H387.124V203.063L387.264 203.215C387.069 203.527 386.841 203.757 386.58 203.903C386.321 204.047 385.997 204.119 385.608 204.119ZM385.8 203.351C386.019 203.351 386.205 203.313 386.36 203.235C386.515 203.158 386.637 203.063 386.728 202.951C386.821 202.839 386.884 202.734 386.916 202.635C386.967 202.513 386.995 202.373 387 202.215C387.008 202.055 387.012 201.926 387.012 201.827L387.308 201.915C387.017 201.961 386.768 202.001 386.56 202.035C386.352 202.07 386.173 202.103 386.024 202.135C385.875 202.165 385.743 202.198 385.628 202.235C385.516 202.275 385.421 202.322 385.344 202.375C385.267 202.429 385.207 202.49 385.164 202.559C385.124 202.629 385.104 202.71 385.104 202.803C385.104 202.91 385.131 203.005 385.184 203.087C385.237 203.167 385.315 203.231 385.416 203.279C385.52 203.327 385.648 203.351 385.8 203.351ZM388.929 199.023V198.139H389.893V199.023H388.929ZM388.929 203.999V199.679H389.893V203.999H388.929ZM392.664 204.119C392.266 204.119 391.92 204.019 391.624 203.819C391.328 203.619 391.098 203.347 390.936 203.003C390.773 202.659 390.692 202.271 390.692 201.839C390.692 201.402 390.773 201.013 390.936 200.671C391.101 200.327 391.334 200.057 391.636 199.859C391.937 199.659 392.292 199.559 392.7 199.559C393.11 199.559 393.454 199.659 393.732 199.859C394.012 200.057 394.224 200.327 394.368 200.671C394.512 201.015 394.584 201.405 394.584 201.839C394.584 202.269 394.512 202.657 394.368 203.003C394.224 203.347 394.009 203.619 393.724 203.819C393.438 204.019 393.085 204.119 392.664 204.119ZM392.812 203.255C393.07 203.255 393.278 203.197 393.436 203.079C393.596 202.959 393.712 202.793 393.784 202.579C393.858 202.366 393.896 202.119 393.896 201.839C393.896 201.557 393.858 201.31 393.784 201.099C393.712 200.886 393.598 200.721 393.444 200.603C393.289 200.483 393.089 200.423 392.844 200.423C392.585 200.423 392.372 200.487 392.204 200.615C392.036 200.741 391.912 200.911 391.832 201.127C391.752 201.341 391.712 201.578 391.712 201.839C391.712 202.103 391.75 202.343 391.828 202.559C391.908 202.773 392.029 202.942 392.192 203.067C392.354 203.193 392.561 203.255 392.812 203.255ZM393.896 203.999V200.967H393.776V198.239H394.748V203.999H393.896Z" fill="#757095"/>
<circle cx="418" cy="200.999" r="5" fill="#22D497"/>
<path d="M427.88 204.119C427.421 204.119 427.017 204.026 426.668 203.839C426.321 203.653 426.049 203.39 425.852 203.051C425.657 202.713 425.56 202.315 425.56 201.859V198.247L426.536 198.239V201.835C426.536 202.051 426.572 202.245 426.644 202.415C426.719 202.586 426.819 202.731 426.944 202.851C427.069 202.969 427.213 203.058 427.376 203.119C427.539 203.181 427.707 203.211 427.88 203.211C428.059 203.211 428.228 203.181 428.388 203.119C428.551 203.055 428.695 202.965 428.82 202.847C428.945 202.727 429.044 202.582 429.116 202.411C429.188 202.241 429.224 202.049 429.224 201.835V198.239H430.2V201.859C430.2 202.315 430.101 202.713 429.904 203.051C429.709 203.39 429.437 203.653 429.088 203.839C428.741 204.026 428.339 204.119 427.88 204.119ZM434.146 203.999V201.919C434.146 201.783 434.136 201.633 434.118 201.467C434.099 201.302 434.055 201.143 433.986 200.991C433.919 200.837 433.818 200.71 433.682 200.611C433.548 200.513 433.367 200.463 433.138 200.463C433.015 200.463 432.894 200.483 432.774 200.523C432.654 200.563 432.544 200.633 432.446 200.731C432.35 200.827 432.272 200.961 432.214 201.131C432.155 201.299 432.126 201.515 432.126 201.779L431.554 201.535C431.554 201.167 431.624 200.834 431.766 200.535C431.91 200.237 432.12 199.999 432.398 199.823C432.675 199.645 433.016 199.555 433.422 199.555C433.742 199.555 434.006 199.609 434.214 199.715C434.422 199.822 434.587 199.958 434.71 200.123C434.832 200.289 434.923 200.465 434.982 200.651C435.04 200.838 435.078 201.015 435.094 201.183C435.112 201.349 435.122 201.483 435.122 201.587V203.999H434.146ZM431.15 203.999V199.679H432.01V201.019H432.126V203.999H431.15ZM438.082 204.119C437.66 204.119 437.307 204.019 437.022 203.819C436.736 203.619 436.522 203.347 436.378 203.003C436.234 202.657 436.162 202.269 436.162 201.839C436.162 201.405 436.234 201.015 436.378 200.671C436.522 200.327 436.732 200.057 437.01 199.859C437.29 199.659 437.635 199.559 438.046 199.559C438.454 199.559 438.807 199.659 439.106 199.859C439.407 200.057 439.64 200.327 439.806 200.671C439.971 201.013 440.054 201.402 440.054 201.839C440.054 202.271 439.972 202.659 439.81 203.003C439.647 203.347 439.418 203.619 439.122 203.819C438.826 204.019 438.479 204.119 438.082 204.119ZM435.998 205.919V199.679H436.85V202.711H436.97V205.919H435.998ZM437.934 203.255C438.184 203.255 438.391 203.193 438.554 203.067C438.716 202.942 438.836 202.773 438.914 202.559C438.994 202.343 439.034 202.103 439.034 201.839C439.034 201.578 438.994 201.341 438.914 201.127C438.834 200.911 438.71 200.741 438.542 200.615C438.374 200.487 438.16 200.423 437.902 200.423C437.656 200.423 437.456 200.483 437.302 200.603C437.147 200.721 437.032 200.886 436.958 201.099C436.886 201.31 436.85 201.557 436.85 201.839C436.85 202.119 436.886 202.366 436.958 202.579C437.032 202.793 437.148 202.959 437.306 203.079C437.466 203.197 437.675 203.255 437.934 203.255ZM441.983 204.119C441.671 204.119 441.407 204.061 441.191 203.943C440.975 203.823 440.811 203.665 440.699 203.467C440.59 203.27 440.535 203.053 440.535 202.815C440.535 202.607 440.57 202.421 440.639 202.255C440.709 202.087 440.815 201.943 440.959 201.823C441.103 201.701 441.29 201.601 441.519 201.523C441.693 201.467 441.895 201.417 442.127 201.371C442.362 201.326 442.615 201.285 442.887 201.247C443.162 201.207 443.449 201.165 443.747 201.119L443.403 201.315C443.406 201.017 443.339 200.797 443.203 200.655C443.067 200.514 442.838 200.443 442.515 200.443C442.321 200.443 442.133 200.489 441.951 200.579C441.77 200.67 441.643 200.826 441.571 201.047L440.691 200.771C440.798 200.406 441.001 200.113 441.299 199.891C441.601 199.67 442.006 199.559 442.515 199.559C442.899 199.559 443.237 199.622 443.527 199.747C443.821 199.873 444.038 200.078 444.179 200.363C444.257 200.515 444.303 200.671 444.319 200.831C444.335 200.989 444.343 201.161 444.343 201.347V203.999H443.499V203.063L443.639 203.215C443.445 203.527 443.217 203.757 442.955 203.903C442.697 204.047 442.373 204.119 441.983 204.119ZM442.175 203.351C442.394 203.351 442.581 203.313 442.735 203.235C442.89 203.158 443.013 203.063 443.103 202.951C443.197 202.839 443.259 202.734 443.291 202.635C443.342 202.513 443.37 202.373 443.375 202.215C443.383 202.055 443.387 201.926 443.387 201.827L443.683 201.915C443.393 201.961 443.143 202.001 442.935 202.035C442.727 202.07 442.549 202.103 442.399 202.135C442.25 202.165 442.118 202.198 442.003 202.235C441.891 202.275 441.797 202.322 441.719 202.375C441.642 202.429 441.582 202.49 441.539 202.559C441.499 202.629 441.479 202.71 441.479 202.803C441.479 202.91 441.506 203.005 441.559 203.087C441.613 203.167 441.69 203.231 441.791 203.279C441.895 203.327 442.023 203.351 442.175 203.351ZM445.305 199.023V198.139H446.269V199.023H445.305ZM445.305 203.999V199.679H446.269V203.999H445.305ZM449.039 204.119C448.642 204.119 448.295 204.019 447.999 203.819C447.703 203.619 447.474 203.347 447.311 203.003C447.148 202.659 447.067 202.271 447.067 201.839C447.067 201.402 447.148 201.013 447.311 200.671C447.476 200.327 447.71 200.057 448.011 199.859C448.312 199.659 448.667 199.559 449.075 199.559C449.486 199.559 449.83 199.659 450.107 199.859C450.387 200.057 450.599 200.327 450.743 200.671C450.887 201.015 450.959 201.405 450.959 201.839C450.959 202.269 450.887 202.657 450.743 203.003C450.599 203.347 450.384 203.619 450.099 203.819C449.814 204.019 449.46 204.119 449.039 204.119ZM449.187 203.255C449.446 203.255 449.654 203.197 449.811 203.079C449.971 202.959 450.087 202.793 450.159 202.579C450.234 202.366 450.271 202.119 450.271 201.839C450.271 201.557 450.234 201.31 450.159 201.099C450.087 200.886 449.974 200.721 449.819 200.603C449.664 200.483 449.464 200.423 449.219 200.423C448.96 200.423 448.747 200.487 448.579 200.615C448.411 200.741 448.287 200.911 448.207 201.127C448.127 201.341 448.087 201.578 448.087 201.839C448.087 202.103 448.126 202.343 448.203 202.559C448.283 202.773 448.404 202.942 448.567 203.067C448.73 203.193 448.936 203.255 449.187 203.255ZM450.271 203.999V200.967H450.151V198.239H451.123V203.999H450.271Z" fill="#757095"/>
<circle cx="474" cy="200.999" r="5" fill="#FF7F5C"/>
<path d="M484.996 204.119C484.42 204.119 483.927 203.994 483.516 203.743C483.105 203.49 482.789 203.138 482.568 202.687C482.349 202.237 482.24 201.714 482.24 201.119C482.24 200.525 482.349 200.002 482.568 199.551C482.789 199.101 483.105 198.75 483.516 198.499C483.927 198.246 484.42 198.119 484.996 198.119C485.66 198.119 486.213 198.286 486.656 198.619C487.099 198.95 487.409 199.397 487.588 199.959L486.616 200.227C486.504 199.851 486.313 199.558 486.044 199.347C485.775 199.134 485.425 199.027 484.996 199.027C484.609 199.027 484.287 199.114 484.028 199.287C483.772 199.461 483.579 199.705 483.448 200.019C483.32 200.331 483.255 200.698 483.252 201.119C483.252 201.541 483.316 201.909 483.444 202.223C483.575 202.535 483.769 202.778 484.028 202.951C484.287 203.125 484.609 203.211 484.996 203.211C485.425 203.211 485.775 203.105 486.044 202.891C486.313 202.678 486.504 202.385 486.616 202.011L487.588 202.279C487.409 202.842 487.099 203.29 486.656 203.623C486.213 203.954 485.66 204.119 484.996 204.119ZM489.514 204.119C489.202 204.119 488.938 204.061 488.722 203.943C488.506 203.823 488.342 203.665 488.23 203.467C488.121 203.27 488.066 203.053 488.066 202.815C488.066 202.607 488.101 202.421 488.17 202.255C488.24 202.087 488.346 201.943 488.49 201.823C488.634 201.701 488.821 201.601 489.05 201.523C489.224 201.467 489.426 201.417 489.658 201.371C489.893 201.326 490.146 201.285 490.418 201.247C490.693 201.207 490.98 201.165 491.278 201.119L490.934 201.315C490.937 201.017 490.87 200.797 490.734 200.655C490.598 200.514 490.369 200.443 490.046 200.443C489.852 200.443 489.664 200.489 489.482 200.579C489.301 200.67 489.174 200.826 489.102 201.047L488.222 200.771C488.329 200.406 488.532 200.113 488.83 199.891C489.132 199.67 489.537 199.559 490.046 199.559C490.43 199.559 490.768 199.622 491.058 199.747C491.352 199.873 491.569 200.078 491.71 200.363C491.788 200.515 491.834 200.671 491.85 200.831C491.866 200.989 491.874 201.161 491.874 201.347V203.999H491.03V203.063L491.17 203.215C490.976 203.527 490.748 203.757 490.486 203.903C490.228 204.047 489.904 204.119 489.514 204.119ZM489.706 203.351C489.925 203.351 490.112 203.313 490.266 203.235C490.421 203.158 490.544 203.063 490.634 202.951C490.728 202.839 490.79 202.734 490.822 202.635C490.873 202.513 490.901 202.373 490.906 202.215C490.914 202.055 490.918 201.926 490.918 201.827L491.214 201.915C490.924 201.961 490.674 202.001 490.466 202.035C490.258 202.07 490.08 202.103 489.93 202.135C489.781 202.165 489.649 202.198 489.534 202.235C489.422 202.275 489.328 202.322 489.25 202.375C489.173 202.429 489.113 202.49 489.07 202.559C489.03 202.629 489.01 202.71 489.01 202.803C489.01 202.91 489.037 203.005 489.09 203.087C489.144 203.167 489.221 203.231 489.322 203.279C489.426 203.327 489.554 203.351 489.706 203.351ZM495.744 203.999V201.919C495.744 201.783 495.734 201.633 495.716 201.467C495.697 201.302 495.653 201.143 495.584 200.991C495.517 200.837 495.416 200.71 495.28 200.611C495.146 200.513 494.965 200.463 494.736 200.463C494.613 200.463 494.492 200.483 494.372 200.523C494.252 200.563 494.142 200.633 494.044 200.731C493.948 200.827 493.87 200.961 493.812 201.131C493.753 201.299 493.724 201.515 493.724 201.779L493.152 201.535C493.152 201.167 493.222 200.834 493.364 200.535C493.508 200.237 493.718 199.999 493.996 199.823C494.273 199.645 494.614 199.555 495.02 199.555C495.34 199.555 495.604 199.609 495.812 199.715C496.02 199.822 496.185 199.958 496.308 200.123C496.43 200.289 496.521 200.465 496.58 200.651C496.638 200.838 496.676 201.015 496.692 201.183C496.71 201.349 496.72 201.483 496.72 201.587V203.999H495.744ZM492.748 203.999V199.679H493.608V201.019H493.724V203.999H492.748ZM499.409 204.119C498.964 204.119 498.584 204.021 498.269 203.823C497.954 203.623 497.713 203.351 497.545 203.007C497.38 202.663 497.296 202.274 497.293 201.839C497.296 201.397 497.382 201.005 497.553 200.663C497.726 200.319 497.972 200.05 498.289 199.855C498.606 199.658 498.984 199.559 499.421 199.559C499.912 199.559 500.326 199.683 500.665 199.931C501.006 200.177 501.229 200.513 501.333 200.939L500.373 201.199C500.298 200.967 500.174 200.787 500.001 200.659C499.828 200.529 499.63 200.463 499.409 200.463C499.158 200.463 498.952 200.523 498.789 200.643C498.626 200.761 498.506 200.923 498.429 201.131C498.352 201.339 498.313 201.575 498.313 201.839C498.313 202.25 498.405 202.582 498.589 202.835C498.773 203.089 499.046 203.215 499.409 203.215C499.665 203.215 499.866 203.157 500.013 203.039C500.162 202.922 500.274 202.753 500.349 202.531L501.333 202.751C501.2 203.191 500.966 203.53 500.633 203.767C500.3 204.002 499.892 204.119 499.409 204.119ZM503.822 204.119C503.384 204.119 503 204.025 502.67 203.835C502.339 203.646 502.08 203.383 501.894 203.047C501.71 202.711 501.618 202.325 501.618 201.887C501.618 201.415 501.708 201.006 501.89 200.659C502.071 200.31 502.323 200.039 502.646 199.847C502.968 199.655 503.342 199.559 503.766 199.559C504.214 199.559 504.594 199.665 504.906 199.875C505.22 200.083 505.454 200.378 505.606 200.759C505.758 201.141 505.815 201.59 505.778 202.107H504.822V201.755C504.819 201.286 504.736 200.943 504.574 200.727C504.411 200.511 504.155 200.403 503.806 200.403C503.411 200.403 503.118 200.526 502.926 200.771C502.734 201.014 502.638 201.37 502.638 201.839C502.638 202.277 502.734 202.615 502.926 202.855C503.118 203.095 503.398 203.215 503.766 203.215C504.003 203.215 504.207 203.163 504.378 203.059C504.551 202.953 504.684 202.799 504.778 202.599L505.73 202.887C505.564 203.277 505.308 203.579 504.962 203.795C504.618 204.011 504.238 204.119 503.822 204.119ZM502.334 202.107V201.379H505.306V202.107H502.334ZM506.59 203.999V198.119H507.554V203.999H506.59ZM508.672 203.999V198.119H509.636V203.999H508.672ZM512.638 204.119C512.201 204.119 511.817 204.025 511.486 203.835C511.156 203.646 510.897 203.383 510.71 203.047C510.526 202.711 510.434 202.325 510.434 201.887C510.434 201.415 510.525 201.006 510.706 200.659C510.888 200.31 511.14 200.039 511.462 199.847C511.785 199.655 512.158 199.559 512.582 199.559C513.03 199.559 513.41 199.665 513.722 199.875C514.037 200.083 514.27 200.378 514.422 200.759C514.574 201.141 514.632 201.59 514.594 202.107H513.638V201.755C513.636 201.286 513.553 200.943 513.39 200.727C513.228 200.511 512.972 200.403 512.622 200.403C512.228 200.403 511.934 200.526 511.742 200.771C511.55 201.014 511.454 201.37 511.454 201.839C511.454 202.277 511.55 202.615 511.742 202.855C511.934 203.095 512.214 203.215 512.582 203.215C512.82 203.215 513.024 203.163 513.194 203.059C513.368 202.953 513.501 202.799 513.594 202.599L514.546 202.887C514.381 203.277 514.125 203.579 513.778 203.795C513.434 204.011 513.054 204.119 512.638 204.119ZM511.15 202.107V201.379H514.122V202.107H511.15ZM517.059 204.119C516.662 204.119 516.315 204.019 516.019 203.819C515.723 203.619 515.494 203.347 515.331 203.003C515.168 202.659 515.087 202.271 515.087 201.839C515.087 201.402 515.168 201.013 515.331 200.671C515.496 200.327 515.73 200.057 516.031 199.859C516.332 199.659 516.687 199.559 517.095 199.559C517.506 199.559 517.85 199.659 518.127 199.859C518.407 200.057 518.619 200.327 518.763 200.671C518.907 201.015 518.979 201.405 518.979 201.839C518.979 202.269 518.907 202.657 518.763 203.003C518.619 203.347 518.404 203.619 518.119 203.819C517.834 204.019 517.48 204.119 517.059 204.119ZM517.207 203.255C517.466 203.255 517.674 203.197 517.831 203.079C517.991 202.959 518.107 202.793 518.179 202.579C518.254 202.366 518.291 202.119 518.291 201.839C518.291 201.557 518.254 201.31 518.179 201.099C518.107 200.886 517.994 200.721 517.839 200.603C517.684 200.483 517.484 200.423 517.239 200.423C516.98 200.423 516.767 200.487 516.599 200.615C516.431 200.741 516.307 200.911 516.227 201.127C516.147 201.341 516.107 201.578 516.107 201.839C516.107 202.103 516.146 202.343 516.223 202.559C516.303 202.773 516.424 202.942 516.587 203.067C516.75 203.193 516.956 203.255 517.207 203.255ZM518.291 203.999V200.967H518.171V198.239H519.143V203.999H518.291Z" fill="#757095"/>
<path d="M367.96 60.9993V52.3593H369.406V60.9993H367.96ZM375.445 60.9993V57.8793C375.445 57.6753 375.431 57.4493 375.403 57.2013C375.375 56.9533 375.309 56.7153 375.205 56.4873C375.105 56.2553 374.953 56.0653 374.749 55.9173C374.549 55.7693 374.277 55.6953 373.933 55.6953C373.749 55.6953 373.567 55.7253 373.387 55.7853C373.207 55.8453 373.043 55.9493 372.895 56.0973C372.751 56.2413 372.635 56.4413 372.547 56.6973C372.459 56.9493 372.415 57.2733 372.415 57.6693L371.557 57.3033C371.557 56.7513 371.663 56.2513 371.875 55.8033C372.091 55.3553 372.407 54.9993 372.823 54.7353C373.239 54.4673 373.751 54.3333 374.359 54.3333C374.839 54.3333 375.235 54.4133 375.547 54.5733C375.859 54.7333 376.107 54.9373 376.291 55.1853C376.475 55.4333 376.611 55.6973 376.699 55.9773C376.787 56.2573 376.843 56.5233 376.867 56.7753C376.895 57.0233 376.909 57.2253 376.909 57.3813V60.9993H375.445ZM370.951 60.9993V54.5193H372.241V56.5293H372.415V60.9993H370.951ZM379.987 60.9993L377.635 54.5193H379.081L380.713 59.2173L382.339 54.5193H383.791L381.439 60.9993H379.987ZM387.255 61.1793C386.607 61.1793 386.041 61.0333 385.557 60.7413C385.073 60.4493 384.697 60.0473 384.429 59.5353C384.165 59.0193 384.033 58.4273 384.033 57.7593C384.033 57.0793 384.169 56.4833 384.441 55.9713C384.713 55.4593 385.091 55.0593 385.575 54.7713C386.059 54.4833 386.619 54.3393 387.255 54.3393C387.907 54.3393 388.475 54.4853 388.959 54.7773C389.443 55.0693 389.819 55.4733 390.087 55.9893C390.355 56.5013 390.489 57.0913 390.489 57.7593C390.489 58.4313 390.353 59.0253 390.081 59.5413C389.813 60.0533 389.437 60.4553 388.953 60.7473C388.469 61.0353 387.903 61.1793 387.255 61.1793ZM387.255 59.8233C387.831 59.8233 388.259 59.6313 388.539 59.2473C388.819 58.8633 388.959 58.3673 388.959 57.7593C388.959 57.1313 388.817 56.6313 388.533 56.2593C388.249 55.8833 387.823 55.6953 387.255 55.6953C386.867 55.6953 386.547 55.7833 386.295 55.9593C386.047 56.1313 385.863 56.3733 385.743 56.6853C385.623 56.9933 385.563 57.3513 385.563 57.7593C385.563 58.3873 385.705 58.8893 385.989 59.2653C386.277 59.6373 386.699 59.8233 387.255 59.8233ZM391.691 53.5353V52.2093H393.137V53.5353H391.691ZM391.691 60.9993V54.5193H393.137V60.9993H391.691ZM397.509 61.1793C396.841 61.1793 396.271 61.0313 395.799 60.7353C395.327 60.4353 394.965 60.0273 394.713 59.5113C394.465 58.9953 394.339 58.4113 394.335 57.7593C394.339 57.0953 394.469 56.5073 394.725 55.9953C394.985 55.4793 395.353 55.0753 395.829 54.7833C396.305 54.4873 396.871 54.3393 397.527 54.3393C398.263 54.3393 398.885 54.5253 399.393 54.8973C399.905 55.2653 400.239 55.7693 400.395 56.4093L398.955 56.7993C398.843 56.4513 398.657 56.1813 398.397 55.9893C398.137 55.7933 397.841 55.6953 397.509 55.6953C397.133 55.6953 396.823 55.7853 396.579 55.9653C396.335 56.1413 396.155 56.3853 396.039 56.6973C395.923 57.0093 395.865 57.3633 395.865 57.7593C395.865 58.3753 396.003 58.8733 396.279 59.2533C396.555 59.6333 396.965 59.8233 397.509 59.8233C397.893 59.8233 398.195 59.7353 398.415 59.5593C398.639 59.3833 398.807 59.1293 398.919 58.7973L400.395 59.1273C400.195 59.7873 399.845 60.2953 399.345 60.6513C398.845 61.0033 398.233 61.1793 397.509 61.1793ZM404.127 61.1793C403.471 61.1793 402.895 61.0373 402.399 60.7533C401.903 60.4693 401.515 60.0753 401.235 59.5713C400.959 59.0673 400.821 58.4873 400.821 57.8313C400.821 57.1233 400.957 56.5093 401.229 55.9893C401.501 55.4653 401.879 55.0593 402.363 54.7713C402.847 54.4833 403.407 54.3393 404.043 54.3393C404.715 54.3393 405.285 54.4973 405.753 54.8133C406.225 55.1253 406.575 55.5673 406.803 56.1393C407.031 56.7113 407.117 57.3853 407.061 58.1613H405.627V57.6333C405.623 56.9293 405.499 56.4153 405.255 56.0913C405.011 55.7673 404.627 55.6053 404.103 55.6053C403.511 55.6053 403.071 55.7893 402.783 56.1573C402.495 56.5213 402.351 57.0553 402.351 57.7593C402.351 58.4153 402.495 58.9233 402.783 59.2833C403.071 59.6433 403.491 59.8233 404.043 59.8233C404.399 59.8233 404.705 59.7453 404.961 59.5893C405.221 59.4293 405.421 59.1993 405.561 58.8993L406.989 59.3313C406.741 59.9153 406.357 60.3693 405.837 60.6933C405.321 61.0173 404.751 61.1793 404.127 61.1793ZM401.895 58.1613V57.0693H406.353V58.1613H401.895ZM410.662 61.1793C409.862 61.1793 409.212 60.9993 408.712 60.6393C408.212 60.2793 407.908 59.7733 407.8 59.1213L409.276 58.8933C409.352 59.2133 409.52 59.4653 409.78 59.6493C410.04 59.8333 410.368 59.9253 410.764 59.9253C411.112 59.9253 411.38 59.8573 411.568 59.7213C411.76 59.5813 411.856 59.3913 411.856 59.1513C411.856 59.0033 411.82 58.8853 411.748 58.7973C411.68 58.7053 411.528 58.6173 411.292 58.5333C411.056 58.4493 410.694 58.3433 410.206 58.2153C409.662 58.0713 409.23 57.9173 408.91 57.7533C408.59 57.5853 408.36 57.3873 408.22 57.1593C408.08 56.9313 408.01 56.6553 408.01 56.3313C408.01 55.9273 408.116 55.5753 408.328 55.2753C408.54 54.9753 408.836 54.7453 409.216 54.5853C409.596 54.4213 410.044 54.3393 410.56 54.3393C411.064 54.3393 411.51 54.4173 411.898 54.5733C412.29 54.7293 412.606 54.9513 412.846 55.2393C413.086 55.5273 413.234 55.8653 413.29 56.2533L411.814 56.5173C411.778 56.2413 411.652 56.0233 411.436 55.8633C411.224 55.7033 410.94 55.6133 410.584 55.5933C410.244 55.5733 409.97 55.6253 409.762 55.7493C409.554 55.8693 409.45 56.0393 409.45 56.2593C409.45 56.3833 409.492 56.4893 409.576 56.5773C409.66 56.6653 409.828 56.7533 410.08 56.8413C410.336 56.9293 410.716 57.0373 411.22 57.1653C411.736 57.2973 412.148 57.4493 412.456 57.6213C412.768 57.7893 412.992 57.9913 413.128 58.2273C413.268 58.4633 413.338 58.7493 413.338 59.0853C413.338 59.7373 413.1 60.2493 412.624 60.6213C412.152 60.9933 411.498 61.1793 410.662 61.1793Z" fill="#757095"/>
<circle cx="442" cy="127.999" r="10" fill="white"/>
<circle cx="442" cy="127.999" r="19" stroke="#FF7F5C" stroke-width="10"/>
<circle cx="442" cy="127.999" r="33" stroke="#22D497" stroke-width="10"/>
<circle cx="442" cy="127.999" r="48" stroke="#3734A9" stroke-width="10"/>
<defs>
<filter id="filter0_dddddd_35_795" x="275" y="28.703" width="335" height="371.296" filterUnits="userSpaceOnUse" color-interpolation-filters="sRGB">
<feFlood flood-opacity="0" result="BackgroundImageFix"/>
<feColorMatrix in="SourceAlpha" type="matrix" values="0 0 0 0 0 0 0 0 0 0 0 0 0 0 0 0 0 0 127 0" result="hardAlpha"/>
<feOffset dy="1.85185"/>
<feGaussianBlur stdDeviation="1.57407"/>
<feColorMatrix type="matrix" values="0 0 0 0 0 0 0 0 0 0 0 0 0 0 0 0 0 0 0.01 0"/>
<feBlend mode="normal" in2="BackgroundImageFix" result="effect1_dropShadow_35_795"/>
<feColorMatrix in="SourceAlpha" type="matrix" values="0 0 0 0 0 0 0 0 0 0 0 0 0 0 0 0 0 0 127 0" result="hardAlpha"/>
<feOffset dy="8.14815"/>
<feGaussianBlur stdDeviation="3.25926"/>
<feColorMatrix type="matrix" values="0 0 0 0 0 0 0 0 0 0 0 0 0 0 0 0 0 0 0.0117778 0"/>
<feBlend mode="normal" in2="effect1_dropShadow_35_795" result="effect2_dropShadow_35_795"/>
<feColorMatrix in="SourceAlpha" type="matrix" values="0 0 0 0 0 0 0 0 0 0 0 0 0 0 0 0 0 0 127 0" result="hardAlpha"/>
<feOffset dy="20"/>
<feGaussianBlur stdDeviation="6.5"/>
<feColorMatrix type="matrix" values="0 0 0 0 0 0 0 0 0 0 0 0 0 0 0 0 0 0 0.015 0"/>
<feBlend mode="normal" in2="effect2_dropShadow_35_795" result="effect3_dropShadow_35_795"/>
<feColorMatrix in="SourceAlpha" type="matrix" values="0 0 0 0 0 0 0 0 0 0 0 0 0 0 0 0 0 0 127 0" result="hardAlpha"/>
<feOffset dy="38.5185"/>
<feGaussianBlur stdDeviation="12.7407"/>
<feColorMatrix type="matrix" values="0 0 0 0 0 0 0 0 0 0 0 0 0 0 0 0 0 0 0.0182222 0"/>
<feBlend mode="normal" in2="effect3_dropShadow_35_795" result="effect4_dropShadow_35_795"/>
<feColorMatrix in="SourceAlpha" type="matrix" values="0 0 0 0 0 0 0 0 0 0 0 0 0 0 0 0 0 0 127 0" result="hardAlpha"/>
<feOffset dy="64.8148"/>
<feGaussianBlur stdDeviation="23.4259"/>
<feColorMatrix type="matrix" values="0 0 0 0 0 0 0 0 0 0 0 0 0 0 0 0 0 0 0.0227778 0"/>
<feBlend mode="normal" in2="effect4_dropShadow_35_795" result="effect5_dropShadow_35_795"/>
<feColorMatrix in="SourceAlpha" type="matrix" values="0 0 0 0 0 0 0 0 0 0 0 0 0 0 0 0 0 0 127 0" result="hardAlpha"/>
<feOffset dy="100"/>
<feGaussianBlur stdDeviation="40"/>
<feColorMatrix type="matrix" values="0 0 0 0 0 0 0 0 0 0 0 0 0 0 0 0 0 0 0.03 0"/>
<feBlend mode="normal" in2="effect5_dropShadow_35_795" result="effect6_dropShadow_35_795"/>
<feBlend mode="normal" in="SourceGraphic" in2="effect6_dropShadow_35_795" result="shape"/>
</filter>
</defs>
</svg>
